<?xml version="1.0" encoding="UTF-8"?>
<svg xmlns="http://www.w3.org/2000/svg" version="1.1" viewBox="0 0 1280 720">
  <defs>
    <style>
      .cls-1 {
        font-size: 165px;
      }

      .cls-1, .cls-2, .cls-3, .cls-4 {
        font-family: Tenshokk-M-90ms-RKSJ-H, HOT-Tenshokk;
      }

      .cls-1, .cls-5 {
        fill: #fff;
      }

      .cls-2 {
        font-size: 170px;
      }

      .cls-2, .cls-3, .cls-4 {
        fill: #f8a57f;
      }

      .cls-6 {
        stroke-width: 3px;
      }

      .cls-6, .cls-7, .cls-8, .cls-9, .cls-5, .cls-10 {
        stroke-miterlimit: 10;
      }

      .cls-6, .cls-7, .cls-9 {
        stroke: #f8a57f;
      }

      .cls-6, .cls-9 {
        fill: none;
      }

      .cls-11 {
        fill: #45858e;
      }

      .cls-11, .cls-12 {
        stroke-width: 0px;
      }

      .cls-12 {
        fill: #86b8b2;
      }

      .cls-7, .cls-8, .cls-9, .cls-5, .cls-10 {
        stroke-width: 5px;
      }

      .cls-7, .cls-10 {
        fill: #f2e0c1;
      }

      .cls-8 {
        fill: #45958e;
      }

      .cls-8, .cls-5, .cls-10 {
        stroke: #fff;
      }

      .cls-3 {
        font-size: 168px;
      }

      .cls-4 {
        font-size: 160px;
      }
    </style>
  </defs>
  <g id="_レイヤー_3" data-name="レイヤー 3">
    <rect class="cls-7" x="411.03" y="140.99" width="374.68" height="374.68" transform="translate(407.42 -326.94) rotate(45)"/>
  </g>
  <g id="_レイヤー_2" data-name="レイヤー 2">
    <rect class="cls-8" x="512.36" y="120.7" width="172" height="172" transform="translate(321.42 -362.57) rotate(45)"/>
    <rect class="cls-10" x="634.5" y="242.84" width="172" height="172" transform="translate(443.55 -413.16) rotate(45)"/>
    <rect class="cls-5" x="512.88" y="364.46" width="172" height="172" transform="translate(493.93 -291.53) rotate(45)"/>
    <rect class="cls-10" x="390.74" y="242.32" width="172" height="172" transform="translate(371.79 -240.94) rotate(45)"/>
  </g>
  <g id="_レイヤー_1" data-name="レイヤー 1">
    <text/>
    <text class="cls-2" transform="translate(516.05 509.05)"><tspan x="0" y="0">き</tspan></text>
    <text class="cls-1" transform="translate(492.38 263.41)"><tspan x="0" y="0">く</tspan></text>
    <text class="cls-4" transform="translate(398.15 393.14)"><tspan x="0" y="0">す</tspan></text>
    <text class="cls-3" transform="translate(640.14 380.84)"><tspan x="0" y="0">の</tspan></text>
  </g>
  <g id="_レイヤー_5" data-name="レイヤー 5">
    <g>
      <line class="cls-9" x1="862.18" y1="329.03" x2="935.51" y2="206.41"/>
      <line class="cls-6" x1="916.58" y1="238.06" x2="922.19" y2="190.36"/>
    </g>
  </g>
  <g id="_レイヤー_4" data-name="レイヤー 4">
    <g>
      <g>
        <path class="cls-12" d="M1020.79,86.39c-39.23,22.12-62.26,61.86-64.8,103.7-2.67.83-5.67,2.12-8.71,3.83-8.45,4.76-13.99,10.93-12.38,13.78,1.61,2.85,9.76,1.3,18.2-3.46,2.87-1.62,5.39-3.4,7.42-5.15,37.25,19.88,83.54,20.9,123.04-1.37,41.21-23.23,27.8-74.96,65.05-110.04-38.01-22.42-86.61-24.53-127.82-1.29Z"/>
        <path class="cls-11" d="M1020.92,86.61c-37.79,21.09-60.58,62.46-62.8,105.15-4.85,1.41-9.54,3.62-13.77,6.51-2.72,1.91-5.44,4.03-7.21,6.76-.25.41-.43.81-.54,1.16-.07.32-.1.56-.06.58-.01.02-.01.04.01.05.02,0,0,.03.02.06.09.03.09.12.26.16.07.03.12.07.2.1l.29.07c7.01.84,16.94-4.74,22.35-9.09,0,0,.71-.59.71-.59l.75.42c37.26,21.51,86,20.07,122.43-2.39,4.48-2.7,8.6-5.98,12.14-9.79,3.55-3.8,6.54-8.11,9.04-12.71,12.57-23.72,14.63-52.63,31.08-74.75,3.23-4.53,6.95-8.71,11-12.53l.46,4.14-7.17-3.97c-4.45-2.22-10.48-4.82-15.03-6.54-34.55-12.43-71.86-10.82-104.17,7.2h0ZM1020.67,86.17c31.99-18.08,70.95-23.2,106.01-11.31,2.67.96,5.33,1.97,7.98,2.99l7.76,3.55,7.51,4.05,3.06,1.65-2.59,2.49c-35.07,32.48-24.2,86.09-64.96,109.16-19.14,10.58-40.85,16.12-62.65,16.24-21.72.17-43.4-4.95-62.88-14.74l1.46-.16c-5.67,4.91-12.28,8.71-19.64,10.46-3.34.76-8.79.73-8.99-3.91.53-8.18,15.4-16.48,22.59-18.66,0,0-1.56,1.99-1.56,1.99.61-10.79,2.68-21.51,6.1-31.74,10.18-30.68,32.89-56.22,60.8-72.04h0Z"/>
      </g>
      <g>
        <g>
          <path class="cls-12" d="M962.59,192.09l58.16-47.28c10.09-8.2,20.91-15.48,32.33-21.73l76.57-28.52"/>
          <path class="cls-11" d="M962.4,191.85c12.89-11.04,30.54-26.33,43.3-37.07,14.37-12.4,29.5-25.08,46.07-34.43,19.11-7.51,38.56-14.11,58.14-20.29,6.51-2.03,13.04-4,19.64-5.79l.21.56c-6.16,2.96-12.39,5.75-18.64,8.47-18.1,7.8-39.51,16.54-56.59,22.41-12.57,6.41-24.35,14.19-35.39,23.02-10.86,8.48-22.88,17.87-33.76,26.22,0,0-22.6,17.37-22.6,17.37l-.38-.47h0Z"/>
        </g>
        <g>
          <path class="cls-12" d="M1064.3,189.75l-23.17,3.75c-12,1.94-24.3-.28-34.86-6.29l-20.39-11.6"/>
          <path class="cls-11" d="M1064.35,190.05c-6.75,1.58-13.53,3-20.3,4.5-3.43.75-7,1.43-10.51,1.61-9,.39-18.3-1.07-26.48-4.99-4.62-2.47-8.96-5.49-13.19-8.59-2.8-2.07-5.54-4.25-8.13-6.71l.3-.52c9.98,2.78,19.01,7.9,28.25,12.39,9.02,4.36,19.43,5.23,29.28,3.84,6.9-.71,13.78-1.5,20.68-2.13l.1.59h0Z"/>
        </g>
        <g>
          <line class="cls-12" x1="1001.26" y1="116.49" x2="999.06" y2="160.43"/>
          <path class="cls-11" d="M1001.56,116.51c.53,7.12.85,14.92.99,22.07.07,3.67.66,7.36.05,11.01-.59,3.76-1.45,7.38-3.25,10.85,0,0-.6-.03-.6-.03-1.98-5.35-2.61-11.02-1.84-16.61.57-3.16,1.14-7.71,1.53-10.94.74-5.3,1.58-11.14,2.52-16.39,0,0,.6.03.6.03h0Z"/>
        </g>
        <g>
          <path class="cls-12" d="M1097.36,145.62l-23.03-1.51c-8.16-.54-16.03-3.27-22.77-7.91l-9.03-6.22"/>
          <path class="cls-11" d="M1097.34,145.92c-4.89.16-9.77.16-14.66.24l-7.32.02c-5.04.02-10.26-.75-15.17-2.13-7.45-2.19-13.13-7.82-17.83-13.82,0,0,.34-.49.34-.49,3.7,1.02,7.02,2.55,10.36,4.28,4.84,2.29,10.49,5.5,15.67,6.93,3.91,1.08,10.05,1.61,14.15,2.23,4.83.72,9.67,1.36,14.5,2.16l-.04.6h0Z"/>
        </g>
        <g>
          <path class="cls-12" d="M1052.86,167.38l-17.67-2.47c-6.26-.87-12.41-3.55-17.8-7.74l-7.22-5.62"/>
          <path class="cls-11" d="M1052.82,167.68c-3.91-.06-7.81-.29-11.71-.42-3.61-.21-8.46-.3-11.95-1.24-4.02-.95-8.21-2.17-11.44-4.9-3.12-2.69-5.67-5.69-7.73-9.34,0,0,.37-.47.37-.47,3.91.98,7.32,2.92,10.76,4.86,4.77,2.73,9.12,5.89,14.71,6.81,5.53,1.25,11.62,2.67,17.08,4.1,0,0-.08.59-.08.59h0Z"/>
        </g>
        <g>
          <line class="cls-12" x1="1040.18" y1="97.01" x2="1025.89" y2="142.84"/>
          <path class="cls-11" d="M1040.47,97.1c-1.47,7.64-3.29,15.95-5.14,23.54-.94,3.89-1.39,7.93-3,11.63-1.6,3.8-3.44,7.42-6.15,10.65,0,0-.57-.18-.57-.18-.44-6.17.52-12.29,2.81-17.98,1.43-3.19,3.24-7.86,4.5-11.17,2.19-5.41,4.63-11.36,6.98-16.68,0,0,.57.18.57.18h0Z"/>
        </g>
        <g>
          <line class="cls-12" x1="1083.29" y1="82.23" x2="1073.91" y2="112.34"/>
          <path class="cls-11" d="M1083.58,82.32c-.66,5.11-1.64,10.63-2.69,15.68-.54,2.57-.57,5.31-1.77,7.71-1.22,2.54-2.67,4.82-4.92,6.72,0,0-.57-.18-.57-.18-.43-1.51-.54-2.92-.56-4.31,0-2.7.35-5.35,1.54-7.78,1.07-2.05,2.37-5.08,3.28-7.24,1.59-3.52,3.36-7.37,5.14-10.79,0,0,.57.18.57.18h0Z"/>
        </g>
        <g>
          <line class="cls-12" x1="1118.97" y1="113.48" x2="1092.01" y2="110.5"/>
          <path class="cls-11" d="M1118.94,113.78c-3.31.32-6.97.46-10.3.57-2.03,0-4.85.03-6.85.22-3.64.12-7.04-1.33-9.82-3.77,0,0,.07-.6.07-.6,2.27-1.32,4.57-1.8,7.04-1.94,2.32-.18,4.47.84,6.68,1.34,0,0,3.33.77,3.33.77,3.23.84,6.76,1.77,9.93,2.8,0,0-.07.6-.07.6h0Z"/>
        </g>
      </g>
    </g>
  </g>
</svg>